<?xml version="1.0" standalone="no"?>
<svg xmlns:xlink="http://www.w3.org/1999/xlink" id="wave" style="transform:rotate(180deg); transition: 0.3s" viewBox="0 0 1440 170" version="1.1" xmlns="http://www.w3.org/2000/svg"><defs><linearGradient id="sw-gradient-0" x1="0" x2="0" y1="1" y2="0"><stop stop-color="rgba(227, 135, 153, 1)" offset="0%"/><stop stop-color="rgba(227, 135, 153, 1)" offset="100%"/></linearGradient></defs><path style="transform:translate(0, 0px); opacity:1" fill="url(#sw-gradient-0)" d="M0,34L60,48.2C120,62,240,91,360,93.5C480,96,600,74,720,62.3C840,51,960,51,1080,59.5C1200,68,1320,85,1440,87.8C1560,91,1680,79,1800,68C1920,57,2040,45,2160,39.7C2280,34,2400,34,2520,34C2640,34,2760,34,2880,36.8C3000,40,3120,45,3240,65.2C3360,85,3480,119,3600,136C3720,153,3840,153,3960,136C4080,119,4200,85,4320,62.3C4440,40,4560,28,4680,36.8C4800,45,4920,74,5040,96.3C5160,119,5280,136,5400,133.2C5520,130,5640,108,5760,87.8C5880,68,6000,51,6120,39.7C6240,28,6360,23,6480,36.8C6600,51,6720,85,6840,102C6960,119,7080,119,7200,102C7320,85,7440,51,7560,53.8C7680,57,7800,96,7920,113.3C8040,130,8160,125,8280,116.2C8400,108,8520,96,8580,90.7L8640,85L8640,170L8580,170C8520,170,8400,170,8280,170C8160,170,8040,170,7920,170C7800,170,7680,170,7560,170C7440,170,7320,170,7200,170C7080,170,6960,170,6840,170C6720,170,6600,170,6480,170C6360,170,6240,170,6120,170C6000,170,5880,170,5760,170C5640,170,5520,170,5400,170C5280,170,5160,170,5040,170C4920,170,4800,170,4680,170C4560,170,4440,170,4320,170C4200,170,4080,170,3960,170C3840,170,3720,170,3600,170C3480,170,3360,170,3240,170C3120,170,3000,170,2880,170C2760,170,2640,170,2520,170C2400,170,2280,170,2160,170C2040,170,1920,170,1800,170C1680,170,1560,170,1440,170C1320,170,1200,170,1080,170C960,170,840,170,720,170C600,170,480,170,360,170C240,170,120,170,60,170L0,170Z"/></svg>